<svg xmlns="http://www.w3.org/2000/svg" width="32" height="32" viewBox="0 0 32 32">
  <defs>
    <style>
      .cls-1 {
        fill: #3d76bc;
        fill-rule: evenodd;
      }
    </style>
  </defs>
  <path id="Forma_962" data-name="Forma 962" class="cls-1" d="M5.136,28.566c-0.489-.008-0.977,0-1.465,0H2.492V25.839H2.626c0.139,0,.278,0,0.417,0a8.976,8.976,0,0,0,.986-0.03,1.2,1.2,0,0,0,1.062-1.254,1.213,1.213,0,0,0-1.166-1.144c-0.2-.011-0.4-0.009-0.6-0.01H2.488V20.664H2.581c0.136,0,.275,0,0.413,0,0.324,0,.656.007,0.987-0.019a1.2,1.2,0,0,0,.893-1.88,1.268,1.268,0,0,0-1.105-.539H2.5V15.5H3.8a1.237,1.237,0,0,0,.983-0.422,1.208,1.208,0,0,0-.877-2.006c-0.388-.01-0.776-0.009-1.168-0.006H2.493V10.34H2.644c0.307,0,.607,0,0.906,0,0.163,0,.327,0,0.491,0,0.416,0,.851,0,1.28-0.033A1.164,1.164,0,0,0,6.2,9.776,1.218,1.218,0,0,0,6.316,8.7a1.263,1.263,0,0,0-1.284-.8c-0.436,0-.872,0-1.307,0-0.742,0-1.483,0-2.224-.009a1.379,1.379,0,0,0-1.485.926L0,30.02l0.023,0.1A1.308,1.308,0,0,0,1.261,31H3.647q0.747,0,1.495,0A1.214,1.214,0,1,0,5.136,28.566ZM31.992,17.03a1.463,1.463,0,0,0-.649-1.276q-3.5-2.568-7-5.143L21.151,8.263a1.315,1.315,0,0,0-1.8-.005L16.708,10.2q-3.774,2.777-7.553,5.55A1.49,1.49,0,0,0,8.5,17.024q0.005,4.113,0,8.227v4.355A1.247,1.247,0,0,0,9.926,31H16.72a1.281,1.281,0,0,0,1.48-1.456l0-1.2c0-1.03-.006-2.061.012-3.091a2.211,2.211,0,0,1,.2-0.939,2.075,2.075,0,0,1,2.335-.973A1.846,1.846,0,0,1,22.3,25.272l0,4.354A1.231,1.231,0,0,0,23.707,31h6.856a1.248,1.248,0,0,0,1.424-1.415v-7.93C31.985,20.111,31.983,18.571,31.992,17.03ZM24.78,25.165a4.324,4.324,0,0,0-3.856-4.279,4.514,4.514,0,0,0-5.072,3.2,4.966,4.966,0,0,0-.126,1.165c-0.01.764-.008,1.53-0.006,2.294v1.008H10.983V26.922q0-4.655,0-9.309a0.257,0.257,0,0,1,.124-0.255q4.535-3.322,9.06-6.663a0.337,0.337,0,0,1,.084-0.051,0.254,0.254,0,0,1,.084.049q4.523,3.341,9.057,6.669a0.193,0.193,0,0,1,.131.184q-0.009,4.372-.006,8.743V28.55H24.781V27.418C24.784,26.667,24.785,25.915,24.78,25.165ZM8.6,5.515a1.224,1.224,0,0,0,1.3.758,1.156,1.156,0,0,0,1.06-1.094c0.021-.619.02-1.24,0.02-1.86V2.452h2.782V2.7c0,0.379,0,.753.005,1.126A1.2,1.2,0,0,0,14.939,5a1.222,1.222,0,0,0,.89-0.315,1.283,1.283,0,0,0,.407-0.931c0.007-.353.005-0.707,0-1.065V2.451H19V2.629c0,0.352,0,.7.008,1.044a1.777,1.777,0,0,0,.15.678,1.213,1.213,0,0,0,1.371.62,1.183,1.183,0,0,0,.941-1.12c0.01-.38.008-0.76,0.005-1.146V2.451h2.779V2.609c0,0.131,0,.263,0,0.394a9.528,9.528,0,0,0,.029.956,1.129,1.129,0,0,0,.422.776,1.24,1.24,0,0,0,.923.258A1.221,1.221,0,0,0,26.739,3.7c0.006-.343,0-0.685,0-1.033V2.451h2.771v0.89c0,0.552,0,1.1,0,1.655a1.327,1.327,0,0,0,.384.959,1.208,1.208,0,0,0,.846.333h0.011a1.235,1.235,0,0,0,1.23-1.3q0.005-1.832,0-3.662A1.22,1.22,0,0,0,30.653,0Q20.246,0,9.838,0A1.224,1.224,0,0,0,8.506,1.3c-0.011,1.231-.006,2.462,0,3.694a1.544,1.544,0,0,0,.1.526h0Z"/>
</svg>
