<svg xmlns="http://www.w3.org/2000/svg" width="32" height="32" viewBox="0 0 32 32">
  <defs>
    <style>
      .cls-1 {
        fill: #3d76bc;
        fill-rule: evenodd;
      }
    </style>
  </defs>
  <path id="Forma_983" data-name="Forma 983" class="cls-1" d="M0.011,20.1C0.06,19.9.1,19.695,0.159,19.5a3.729,3.729,0,0,1,2.089-2.428,0.383,0.383,0,0,0,.265-0.418Q2.5,11.07,2.51,5.49a2.2,2.2,0,0,1,.041-0.5,1.237,1.237,0,0,1,1.323-.967A1.252,1.252,0,0,1,5,5.252c0.014,0.782,0,1.565,0,2.34q11-7.183,21.981,0c0-.713,0-1.44,0-2.166a1.937,1.937,0,0,1,.058-0.5,1.232,1.232,0,0,1,1.308-.9,1.268,1.268,0,0,1,1.125,1.171c0.009,0.116,0,.233,0,0.35q0,5.516-.006,11.032a0.478,0.478,0,0,0,.311.518,3.671,3.671,0,0,1,2.185,3.458c0.025,3.37.009,6.74,0.007,10.11a1.251,1.251,0,1,1-2.5-.007c0-1.124,0-2.247,0-3.37V26.925H2.509v0.331q0,1.669,0,3.339a1.289,1.289,0,0,1-1.034,1.384,1.256,1.256,0,0,1-1.417-.917,0.662,0.662,0,0,0-.046-0.082V20.1Zm2.5,4.238H29.484c0-1.2,0-2.374,0-3.55A1.3,1.3,0,0,0,28,19.277H3.992c-0.1,0-.208,0-0.312,0a1.227,1.227,0,0,0-1.16,1.164C2.5,21.736,2.513,23.028,2.513,24.342Zm24.45-7.616a0.815,0.815,0,0,0,.022-0.119c0-1.834,0-3.667-.005-5.5a0.466,0.466,0,0,0-.158-0.311c-0.508-.421-1.007-0.858-1.548-1.233A15.742,15.742,0,0,0,13.14,6.845,15.959,15.959,0,0,0,5.194,10.78a0.642,0.642,0,0,0-.179.427C5,12.945,5.006,14.683,5.006,16.421v0.294H7.5c0-.45,0-0.882,0-1.314a3.76,3.76,0,0,1,2.8-3.618,13.058,13.058,0,0,1,3.667-.091A3.39,3.39,0,0,1,16,12.614a3.775,3.775,0,0,1,2.524-.967c0.76,0,1.52-.018,2.279,0a3.644,3.644,0,0,1,3.1,1.775,3.729,3.729,0,0,1,.587,2.076c0,0.408,0,.816,0,1.224h2.474ZM14.744,16.72c0-.474.02-0.919,0-1.361a1.229,1.229,0,0,0-1.19-1.165c-0.78-.016-1.561-0.015-2.341,0a1.2,1.2,0,0,0-1.181,1.064,14.577,14.577,0,0,0-.01,1.462h4.727Zm7.281,0.005a10.909,10.909,0,0,0-.138-1.716,1.08,1.08,0,0,0-1.11-.815c-0.769-.019-1.54-0.013-2.31,0a1.153,1.153,0,0,0-1.164.958,11.37,11.37,0,0,0-.015,1.575h4.737Z"/>
</svg>
