<svg xmlns="http://www.w3.org/2000/svg" width="32" height="32" viewBox="0 0 32 32">
  <defs>
    <style>
      .cls-1 {
        fill: #3d76bc;
        fill-rule: evenodd;
      }
    </style>
  </defs>
  <path id="Forma_904" data-name="Forma 904" class="cls-1" d="M5.4,28.36H6.016q5.686,0,11.373,0a1.217,1.217,0,0,1,1.351,1.188,1.243,1.243,0,0,1-1.289,1.433c-2.031.006-4.062,0-6.093,0q-3.478,0-6.955,0A1.294,1.294,0,0,1,3,29.439Q3,16.51,3,3.582a1.3,1.3,0,0,1,1.433-1.57q11.576,0,23.151,0c0.976,0,1.412.494,1.413,1.594q0,12.9,0,25.8a1.3,1.3,0,0,1-1.426,1.578c-0.931,0-1.862.006-2.792,0a1.311,1.311,0,0,1-.023-2.62c0.575-.013,1.15-0.011,1.725-0.018a0.468,0.468,0,0,0,.125-0.059V23.074H26.032q-3.782,0-7.565,0A1.192,1.192,0,0,1,17.2,21.911a1.23,1.23,0,0,1,1.257-1.456c2.522-.007,5.043,0,7.565,0H26.6V4.673H19.579V9.922h2.241c0.694,0,1.388-.013,2.082.007a1.207,1.207,0,0,1,1.143,1.3,1.2,1.2,0,0,1-1.147,1.3q-2.767.024-5.534,0a1.226,1.226,0,0,1-1.175-1.443c-0.011-1.924,0-3.847,0-5.771V4.674H5.392v9.573a1.978,1.978,0,0,0,.337.058c1.574,0,3.148-.006,4.722.01,0.335,0,.437-0.121.433-0.488-0.013-1.452-.018-2.9.008-4.356a1.228,1.228,0,0,1,1.193-1.323,1.3,1.3,0,0,1,1.162,1.324c0.009,0.15,0,.3,0,0.452q0,4.074,0,8.148c0,1.207.008,2.415,0,3.621a1.339,1.339,0,0,1-.847,1.334,1.09,1.09,0,0,1-1.323-.558,2.476,2.476,0,0,1-.19-0.973c-0.021-1.282-.009-2.565-0.009-3.847V16.99H5.4V28.36Z"/>
</svg>
