<svg xmlns="http://www.w3.org/2000/svg" width="32" height="32" viewBox="0 0 32 32">
  <defs>
    <style>
      .cls-1 {
        fill: #3d76bc;
        fill-rule: evenodd;
      }
    </style>
  </defs>
  <path id="Forma_962" data-name="Forma 962" class="cls-1" d="M24.2,17.543a2.7,2.7,0,0,0,1.681-3.074,4.949,4.949,0,0,0-.48-1.256,2.406,2.406,0,0,0-2.272-1.374l-0.085-.045a4.872,4.872,0,0,0-3.758-2.955,6.619,6.619,0,0,0-1.091-.076l-0.261,0-0.059-.134c-0.128-.291-0.263-0.6-0.4-0.9A8.1,8.1,0,0,0,2.321,8.874a11.012,11.012,0,0,0-.229,1.077c-0.028.16-.057,0.322-0.1,0.555V29.762A1.137,1.137,0,0,0,3.117,30.99H6.471A1.026,1.026,0,0,0,7.228,30.7a1.356,1.356,0,0,0,.334-1.009c-0.01-4.2-.009-8.489-0.008-12.729v-4.21c0-.517,0-1.034,0-1.55a2.55,2.55,0,0,1,4.919-1.03l0.138,0.319c0.089,0.209.178,0.419,0.287,0.638l0,0a4.874,4.874,0,0,0-1.321,4.589,7.027,7.027,0,0,0,.276.91c0.02,0.056.04,0.112,0.059,0.168a2.534,2.534,0,0,0-.7,1.6,3.257,3.257,0,0,0,.411,1.6,2.749,2.749,0,0,0,3.761,1.452q1.334-.584,2.663-1.18ZM14.911,9.849l-0.273-.612a4.849,4.849,0,0,0-4.173-3.012A4.908,4.908,0,0,0,5.243,10.5c-0.03.3-.045,0.608-0.045,0.912l0,17.206H4.352V23.94q0-6.392,0-12.785A5.749,5.749,0,0,1,15.278,8.6c0.131,0.272.251,0.55,0.375,0.834L15.682,9.5Zm8.656,5.276a1.55,1.55,0,0,1-.608.388L14.5,19.275c-0.089.039-.184,0.069-0.28,0.1l-0.045.015-0.027-.009a0.787,0.787,0,0,1-.155-0.062,1.278,1.278,0,0,1-.414-0.845,0.445,0.445,0,0,1,.2-0.125q1.671-.739,3.34-1.484l5.849-2.6a0.666,0.666,0,0,1,.221-0.077c0.074,0,.111.067,0.188,0.238A1.564,1.564,0,0,1,23.566,15.125Zm-9.559.543a2.54,2.54,0,0,1-.167-1.418,2.581,2.581,0,0,1,1.569-2.04q0.959-.444,1.93-0.861a2.8,2.8,0,0,1,1.1-.232,2.644,2.644,0,0,1,2.39,1.513ZM16.7,26.951h0a1.157,1.157,0,0,0-1.131.968,2.178,2.178,0,0,0-.014.437l0.017,0.426a2.3,2.3,0,0,0,.009.239,1.169,1.169,0,0,0,1.169,1.08h0.006a1.141,1.141,0,0,0,1.158-1.042,6.3,6.3,0,0,0-.053-1.153A1.166,1.166,0,0,0,16.7,26.951Zm13.02-4.091A7.141,7.141,0,0,0,29,22.144a1.175,1.175,0,0,0-1.929.9,1.763,1.763,0,0,0,.562,1.081,2.053,2.053,0,0,0,1.249.657A1.17,1.17,0,0,0,29.715,22.86Zm-4.4-3.908h0a1.121,1.121,0,0,0-1.251-.174,1.2,1.2,0,0,0-.691,1.139l0.019,0.155,0.039,0.085a1.538,1.538,0,0,0,.218.424,5.685,5.685,0,0,0,.641.681,1.166,1.166,0,0,0,1.6,0,1.154,1.154,0,0,0,.109-1.6A6.466,6.466,0,0,0,25.316,18.951Zm-8.488,3.124a1.16,1.16,0,0,0-1.121.841,1.706,1.706,0,0,0-.047.4l0,0.115,0.022,0.27c0.013,0.157.024,0.3,0.04,0.433a1.173,1.173,0,0,0,1.151,1.056h0.018a1.144,1.144,0,0,0,1.165-1.089,5.041,5.041,0,0,0-.091-1.141A1.117,1.117,0,0,0,16.828,22.075Zm8.192,1.674h0a1.164,1.164,0,0,0-1.686,1.463,6.57,6.57,0,0,0,.536.891,1.124,1.124,0,0,0,.919.455,1.24,1.24,0,0,0,.394-0.065,1.2,1.2,0,0,0,.781-1.22l-0.021-.123A2.781,2.781,0,0,0,25.02,23.749Zm-3.355,2.293a1.159,1.159,0,0,0-1.335-.759,1.217,1.217,0,0,0-.944,1.294v0.064l0.088,0.279a5.665,5.665,0,0,0,.3.826,1.082,1.082,0,0,0,.989.59,1.183,1.183,0,0,0,1.156-1.445C21.844,26.6,21.763,26.321,21.665,26.043Zm0.093-4.992A1.175,1.175,0,0,0,19.609,22c0.094,0.239.2,0.475,0.31,0.706a1.158,1.158,0,0,0,.984.676H20.92a1.247,1.247,0,0,0,1.017-.489,1.117,1.117,0,0,0,.17-1.012A5.905,5.905,0,0,0,21.757,21.051Z"/>
</svg>
